# xmcd CD database file
#
# Track frame offsets:
#	150
#	7973
#	17499
#	32441
#	45272
#	59157
#
# Disc length: 956 seconds
#
# Revision: 0
# Processed by: cddbd v1.5.2PL0 Copyright (c) Steve Scherf et al.
# Submitted via: CDex 1.70beta2
#
DISCID=3a03ba06
DTITLE=Yukie Nishimura - あなたが輝くとき Disk 2
DYEAR=2007
DGENRE=New Age
TTITLE0=ワン·ノート·サンバ
TTITLE1=Close to You
TTITLE2=ロミオとジュリエット
TTITLE3=そよ風の誘惑
TTITLE4=Moon River
TTITLE5=The Sound of Music
EXTD=YEAR: 2007
EXTT0=
EXTT1=
EXTT2=
EXTT3=
EXTT4=
EXTT5=
PLAYORDER=
